<?xml version="1.0" encoding="UTF-8" standalone="no"?>
<svg width="36px" height="36px" viewBox="0 0 36 36" version="1.1" xmlns="http://www.w3.org/2000/svg" xmlns:xlink="http://www.w3.org/1999/xlink">
    <!-- Generator: Sketch 40.1 (33804) - http://www.bohemiancoding.com/sketch -->
    <title>Oval 71 Copy 24</title>
    <desc>Created with Sketch.</desc>
    <defs>
        <circle id="path-1" cx="1551" cy="921" r="18"></circle>
        <mask id="mask-2" maskContentUnits="userSpaceOnUse" maskUnits="objectBoundingBox" x="0" y="0" width="36" height="36" fill="white">
            <use xlink:href="#path-1"></use>
        </mask>
    </defs>
    <g id="Page-1" stroke="none" stroke-width="1" fill="none" fill-rule="evenodd">
        <g id="函数" transform="translate(-1533.000000, -903.000000)">
            <use id="Oval-71-Copy-24" stroke="#CC5733" mask="url(#mask-2)" stroke-width="2" fill="#FFFFFF" xlink:href="#path-1"></use>
            <path d="M1560.15662,925.934883 C1560.11397,926.084182 1559.92201,926.187777 1559.66759,926.324889 C1559.39184,926.469618 1559.15266,926.455907 1558.98203,926.408679 C1558.81598,926.359929 1558.66668,926.250239 1558.54175,926.084182 L1556.25047,923.052492 L1553.47015,926.068947 C1553.13803,926.428484 1552.76174,926.481806 1552.33212,926.227387 C1552.1554,926.123792 1551.83242,925.73988 1551.79434,925.566205 C1551.75778,925.394054 1551.82633,925.212762 1552.00305,925.019282 L1555.0774,921.673759 L1552.83791,918.710625 C1552.74498,918.575037 1552.73584,918.416597 1552.80896,918.236828 C1552.87904,918.05706 1553.0451,917.950417 1553.22182,917.845299 C1553.47624,917.702093 1553.70933,917.697523 1553.88148,917.711234 C1554.05516,917.721898 1554.21207,917.820923 1554.3568,918.003739 L1556.21847,920.430614 L1558.47167,917.976316 C1558.66668,917.759985 1558.88758,917.683812 1559.10086,917.622873 C1559.31262,917.561935 1559.73158,917.781313 1559.9601,917.909284 C1560.19471,918.035731 1560.31659,918.181984 1560.33182,918.346518 C1560.34553,918.511052 1560.28155,918.672539 1560.13529,918.832502 L1557.3824,921.818488 L1560.09873,925.543353 C1560.18404,925.654566 1560.20537,925.78863 1560.15662,925.934883 L1560.15662,925.934883 Z M1553.08166,911.085697 C1552.12645,910.977531 1550.12615,910.834326 1548.91347,911.618909 C1547.69775,912.406539 1547,913.759373 1546.66179,915.368149 L1546.18495,917.641155 L1542.76173,917.641155 C1542.36411,917.641155 1542.04723,917.755414 1542.01371,918.468395 C1542.04723,918.856877 1542.36411,919.164617 1542.76173,919.164617 L1545.85741,919.164617 L1543.81749,929.131106 C1543.81749,929.131106 1543.29494,930.756641 1544.43754,930.828243 C1545.43541,930.890705 1545.63346,929.266695 1545.63346,929.266695 L1547.69013,919.164617 L1550.30287,919.164617 C1550.72334,919.164617 1551.0646,918.823361 1551.0646,918.402886 C1551.0646,917.98241 1550.72334,917.641155 1550.30287,917.641155 L1548.01463,917.641155 L1548.4671,915.413853 C1549.4345,911.864186 1551.23827,912.726466 1552.90494,912.726466 C1553.17764,912.726466 1554.20598,912.798068 1554.27758,912.094229 C1554.36899,911.213668 1553.48386,911.131401 1553.08166,911.085697 L1553.08166,911.085697 Z M1542,918.579607 C1542,918.533903 1542.0448,918.511052 1542.0576,918.469918 C1542.0448,918.447066 1542,918.427261 1542,918.402886 L1542,918.579607 L1542,918.579607 Z" id="Shape-Copy-15" fill="#FF6E40"></path>
        </g>
    </g>
</svg>